<svg width="36" height="37" viewBox="0 0 36 37" fill="none" xmlns="http://www.w3.org/2000/svg">
<path d="M22.6957 27.8913C22.2261 27.8913 21.9131 27.7348 21.6001 27.4218C20.974 26.7957 20.974 25.8566 21.6001 25.2305L29.4261 17.4044C30.0522 16.7783 30.9914 16.7783 31.6175 17.4044C32.2435 18.0305 32.2435 18.9696 31.6175 19.5957L23.7914 27.4218C23.4783 27.7348 23.1653 27.8913 22.6957 27.8913Z" fill="black"/>
<path d="M30.5218 20.0653C30.0522 20.0653 29.7392 19.9088 29.4261 19.5957L21.6001 11.7696C20.974 11.1435 20.974 10.2044 21.6001 9.57833C22.2261 8.95224 23.1653 8.95224 23.7914 9.57833L31.6175 17.4044C32.2435 18.0305 32.2435 18.9696 31.6175 19.5957C31.3044 19.9088 30.9914 20.0653 30.5218 20.0653Z" fill="black"/>
<path d="M30.5218 20.0652H5.4783C4.53917 20.0652 3.91309 19.4392 3.91309 18.5C3.91309 17.5609 4.53917 16.9348 5.4783 16.9348H30.5218C31.4609 16.9348 32.087 17.5609 32.087 18.5C32.087 19.4392 31.4609 20.0652 30.5218 20.0652Z" fill="black"/>
</svg>
