<svg width="19" height="19" viewBox="0 0 19 19" fill="none" xmlns="http://www.w3.org/2000/svg">
<g clip-path="url(#clip0_2_275)">
<path d="M13.8418 15.4984L10.1036 13.4276C11.4929 12.3345 11.8703 10.1864 11.8703 8.98191V6.4748C11.8703 4.81468 9.66449 2.96574 7.44891 2.96574C5.23392 2.96574 2.96966 4.81498 2.96966 6.4748V8.98191C2.96966 10.0771 3.43306 12.2927 4.83671 13.4181L1.00195 15.4983C1.00195 15.4983 0 15.9448 0 16.5015V18.006C0 18.5597 0.44945 19.0092 1.00195 19.0092H13.8418C14.3949 19.0092 14.8443 18.5597 14.8443 18.006V16.5015C14.8443 15.9113 13.8418 15.4984 13.8418 15.4984L13.8418 15.4984ZM13.6569 17.8217H1.18754V16.7601C1.27274 16.6981 1.39179 16.6262 1.4856 16.5832C1.51349 16.5704 1.54139 16.557 1.56782 16.5419L5.40285 14.462C5.75257 14.2723 5.98443 13.9205 6.01975 13.5245C6.05508 13.1284 5.88972 12.7404 5.57978 12.4916C4.58407 11.6933 4.15746 9.92514 4.15746 8.98197V6.47486C4.15746 5.62194 5.76533 4.1533 7.44921 4.1533C9.16425 4.1533 10.6831 5.60177 10.6831 6.47486V8.98197C10.6831 9.91208 10.3942 11.688 9.36969 12.494C9.21526 12.6156 9.09337 12.7736 9.01493 12.9538C8.9365 13.1341 8.90396 13.3309 8.92022 13.5268C8.93676 13.7226 9.00154 13.9113 9.10877 14.0759C9.21601 14.2405 9.36236 14.376 9.53475 14.4703L13.273 16.541C13.306 16.5591 13.3478 16.5787 13.3826 16.5939C13.4701 16.631 13.5779 16.693 13.6569 16.7476V17.8217ZM17.9975 12.5418L14.2037 10.4711C15.5931 9.37798 16.0262 7.22979 16.0262 6.02535V3.51824C16.0262 1.85812 13.7649 -0.00952148 11.5493 -0.00952148C10.1095 -0.00952148 8.63732 0.773338 7.78052 1.7759C8.26919 1.80617 8.80802 1.80678 9.27352 1.95522C9.89902 1.46804 10.6905 1.17829 11.5494 1.17829C13.2644 1.17829 14.8387 2.64513 14.8387 3.51856V6.02567C14.8387 6.95576 14.4943 8.73168 13.4698 9.5377C13.3154 9.6593 13.1935 9.81729 13.1151 9.99753C13.0366 10.1778 13.0041 10.3746 13.0204 10.5705C13.0369 10.7663 13.1017 10.9549 13.2089 11.1196C13.3162 11.2842 13.4625 11.4197 13.6349 11.514L17.4287 13.5847C17.4616 13.6028 17.5035 13.6224 17.5382 13.6375C17.6258 13.6747 17.7335 13.7367 17.8125 13.7913V14.8473H15.4156C15.7774 15.1204 15.887 15.5111 16.0274 16.0348H17.9978C18.5508 16.0348 19.0003 15.5853 19.0003 15.0317V13.5455C19 12.9547 17.9975 12.5418 17.9975 12.5418L17.9975 12.5418Z" fill="#FDFFF0" stroke="#FDFFF0" stroke-width="0.25"/>
</g>
<defs>
<clipPath id="clip0_2_275">
<rect width="19" height="19" fill="white"/>
</clipPath>
</defs>
</svg>
