<svg width="28" height="29" viewBox="0 0 28 29" fill="none" xmlns="http://www.w3.org/2000/svg">
<g clip-path="url(#clip0_2_211)">
<path d="M23.0585 12.8514C23.0792 12.7816 23.0999 12.7122 23.1207 12.6433C22.9041 12.5552 22.6815 12.32 22.6007 11.9845C22.5165 11.6554 22.5902 11.2429 22.8236 10.978C23.0517 10.7068 23.388 10.6362 23.6478 10.7394C23.9126 10.84 24.0945 11.0964 24.1652 11.3478C24.2164 11.3266 24.2671 11.305 24.3167 11.2843C24.251 10.9751 24.0615 10.6226 23.7231 10.4513C23.5556 10.3654 23.3575 10.3315 23.1545 10.3696C22.9523 10.4077 22.7483 10.5236 22.5884 10.7073C22.4277 10.8896 22.3202 11.1328 22.2804 11.3804C22.2406 11.6287 22.2639 11.877 22.3346 12.0903C22.4776 12.5231 22.7898 12.7732 23.0585 12.8514Z" fill="#292929"/>
<path d="M18.6252 12.9373C18.6501 12.8637 18.6748 12.7896 18.6993 12.716C18.4272 12.6183 18.1527 12.3641 18.0532 12.0078C17.95 11.6584 18.0388 11.2226 18.3261 10.9379C18.6079 10.6476 19.0306 10.563 19.3698 10.6697C19.7138 10.7716 19.9613 11.0483 20.0577 11.3241C20.128 11.3005 20.1973 11.2768 20.2671 11.2531C20.177 10.9146 19.913 10.5334 19.4709 10.3562C19.253 10.2678 18.9992 10.2386 18.7445 10.2834C18.4907 10.3283 18.2393 10.4573 18.0439 10.654C17.8467 10.8516 17.7173 11.1067 17.6695 11.3686C17.6217 11.6296 17.6492 11.8936 17.7351 12.1179C17.909 12.5764 18.2893 12.8464 18.6252 12.9373Z" fill="#292929"/>
<path d="M12.8562 12.1102C13.0258 12.562 13.4011 12.837 13.7379 12.9343C13.7607 12.8612 13.7831 12.7879 13.8059 12.7148C13.5326 12.612 13.2597 12.3556 13.1607 12.0036C13.0575 11.6567 13.1442 11.2273 13.429 10.9421C13.7091 10.6506 14.1338 10.5588 14.4799 10.662C14.8311 10.7606 15.0874 11.0386 15.1877 11.319C15.2617 11.2945 15.3362 11.2704 15.4106 11.2459C15.3167 10.8994 15.0417 10.5152 14.5907 10.3443C14.3681 10.2597 14.1114 10.2335 13.8563 10.2842C13.6016 10.3337 13.3519 10.4665 13.1582 10.6637C12.9645 10.8613 12.8375 11.1151 12.791 11.3724C12.744 11.6304 12.7715 11.8868 12.8562 12.1102Z" fill="#292929"/>
<path d="M9.37193 12.8421C9.38889 12.7744 9.40584 12.7067 9.42268 12.6386C9.20437 12.5379 8.99454 12.2967 8.91879 11.9723C8.84054 11.6512 8.90403 11.2582 9.12486 10.9912C9.34147 10.7187 9.68075 10.6243 9.9642 10.7174C10.2519 10.8046 10.4668 11.0669 10.5514 11.333C10.6149 11.3093 10.6787 11.2856 10.7427 11.2624C10.664 10.9332 10.4313 10.5694 10.0598 10.4158C9.87708 10.3396 9.66807 10.3211 9.46501 10.3731C9.26146 10.4238 9.06689 10.5516 8.91923 10.7369C8.77114 10.9226 8.6768 11.1557 8.64169 11.3914C8.60696 11.627 8.62731 11.8627 8.69036 12.0679C8.81691 12.4838 9.10375 12.7448 9.37193 12.8421Z" fill="#292929"/>
<path d="M21.5292 14.1359C21.3354 14.0631 21.1036 14.0458 20.865 14.0995C20.6272 14.1528 20.3852 14.284 20.1923 14.476C19.9994 14.6677 19.8648 14.9097 19.8073 15.1491C19.7493 15.3882 19.7616 15.6213 19.8285 15.8159C19.963 16.2106 20.2913 16.4243 20.5891 16.4877C20.6171 16.4247 20.6445 16.3608 20.672 16.2973C20.4326 16.2246 20.199 16.0176 20.1284 15.7084C20.0535 15.4038 20.1585 15.0065 20.441 14.7311C20.7185 14.4502 21.1154 14.3525 21.4184 14.4358C21.7255 14.5157 21.9302 14.7582 21.9979 15.0031C22.0622 14.9773 22.1265 14.9519 22.1904 14.9261C22.1325 14.6233 21.9226 14.2822 21.5292 14.1359Z" fill="#292929"/>
<path d="M16.8601 14.2357C16.6371 14.152 16.3774 14.1257 16.1193 14.1727C15.8608 14.2189 15.6082 14.3445 15.4149 14.5314C15.2211 14.7189 15.0976 14.9583 15.0561 15.1974C15.0142 15.4368 15.0477 15.6724 15.1365 15.8722C15.3154 16.2779 15.6869 16.5093 16.014 16.5901C16.036 16.5279 16.0588 16.4662 16.0816 16.4027C15.8151 16.3164 15.5448 16.0956 15.4411 15.7787C15.3337 15.4678 15.4124 15.0684 15.6966 14.8014C15.975 14.5268 16.4053 14.4413 16.7501 14.5412C17.1004 14.636 17.35 14.8974 17.4431 15.1538C17.5159 15.1309 17.5886 15.1076 17.6614 15.0848C17.5764 14.7667 17.312 14.4028 16.8601 14.2357Z" fill="#292929"/>
<path d="M12.0939 14.1706C11.8841 14.0821 11.6454 14.0471 11.4161 14.0843C11.186 14.1198 10.9685 14.2324 10.8086 14.407C10.6478 14.5809 10.5526 14.8064 10.5293 15.0366C10.5057 15.2667 10.5484 15.4973 10.6393 15.6987C10.8229 16.1053 11.1774 16.3565 11.4859 16.4534C11.5007 16.3925 11.5151 16.332 11.5299 16.2702C11.2773 16.1717 11.015 15.9369 10.9021 15.6217C10.7857 15.3112 10.8314 14.9287 11.0692 14.6791C11.301 14.4249 11.6843 14.3563 12.008 14.4659C12.3367 14.5712 12.5897 14.839 12.6971 15.0975C12.7648 15.078 12.8325 15.0582 12.9006 15.0383C12.7971 14.7197 12.5212 14.3495 12.0939 14.1706Z" fill="#292929"/>
<path d="M19.8835 8.31528C20.0679 8.74343 20.4385 9.01632 20.7554 9.11574C20.7744 9.04634 20.7935 8.977 20.8121 8.90848C20.5544 8.80479 20.2854 8.55476 20.1746 8.22521C20.0595 7.89987 20.1183 7.51569 20.3632 7.27879C20.6027 7.03641 20.9797 6.98309 21.2932 7.09094C21.6104 7.19506 21.8529 7.44887 21.9591 7.69972C22.02 7.68282 22.0809 7.66587 22.1418 7.64897C22.0361 7.34223 21.7717 6.99622 21.36 6.82696C21.1574 6.74148 20.9268 6.70632 20.6992 6.73388C20.4725 6.76226 20.2533 6.85994 20.0858 7.02329C19.9191 7.18489 19.8141 7.40408 19.7837 7.63464C19.7532 7.86553 19.7921 8.10457 19.8835 8.31528Z" fill="#292929"/>
<path d="M15.066 7.58296C15.0131 7.81735 15.0351 8.05765 15.1155 8.26705C15.2779 8.69219 15.6574 8.95666 15.9985 9.04678C16.023 8.97531 16.0471 8.90378 16.0717 8.8323C15.7958 8.73671 15.5225 8.49132 15.4295 8.1626C15.3313 7.83726 15.4269 7.44504 15.7112 7.19419C15.99 6.93656 16.4021 6.86163 16.7376 6.95307C17.0781 7.04024 17.3303 7.28601 17.4331 7.53604C17.5041 7.5157 17.5752 7.49503 17.6462 7.47424C17.5473 7.1646 17.2748 6.83035 16.8391 6.68226C16.6241 6.60778 16.3766 6.58497 16.1292 6.62555C15.8821 6.66662 15.6375 6.77742 15.4438 6.95001C15.2496 7.12222 15.118 7.34939 15.066 7.58296Z" fill="#292929"/>
<path d="M11.307 9.13855C11.3315 9.06789 11.3565 8.99811 11.3815 8.92745C11.1387 8.84367 10.9102 8.61694 10.8459 8.30172C10.7765 7.9912 10.8839 7.60451 11.1589 7.34091C11.4297 7.0748 11.8172 6.97664 12.1227 7.05151C12.4332 7.12216 12.6507 7.35273 12.7272 7.59685C12.7971 7.57312 12.8673 7.54905 12.9375 7.52494C12.869 7.22202 12.6405 6.90303 12.2454 6.7761C12.0507 6.71348 11.8219 6.70249 11.59 6.75619C11.3582 6.80908 11.1259 6.93262 10.9389 7.11369C10.7519 7.29432 10.6207 7.52362 10.5615 7.75419C10.5014 7.98606 10.5074 8.21706 10.5675 8.41667C10.6868 8.82037 11.0058 9.0616 11.307 9.13855Z" fill="#292929"/>
<path d="M18.6514 5.66512C18.6687 5.61016 18.6857 5.55602 18.7021 5.50226C18.4445 5.42144 18.1776 5.2285 18.0684 4.9899C17.955 4.75299 18.0108 4.49027 18.2381 4.33036C18.461 4.16833 18.813 4.12512 19.1193 4.1844C19.4294 4.24106 19.6816 4.40397 19.8005 4.58291C19.8614 4.56897 19.9219 4.5554 19.9819 4.5419C19.8592 4.32227 19.5762 4.10276 19.1751 4.01263C18.9772 3.96735 18.758 3.9534 18.5456 3.97752C18.3341 4.00246 18.1319 4.06683 17.977 4.17254C17.8222 4.27704 17.7241 4.42131 17.6953 4.5787C17.6665 4.73609 17.7025 4.90661 17.7909 5.05929C17.9677 5.37156 18.3337 5.5873 18.6514 5.66512Z" fill="#292929"/>
<path d="M14.1543 5.66261C14.1809 5.60677 14.2075 5.55093 14.2338 5.49635C13.988 5.42909 13.7574 5.24627 13.6994 5.00854C13.6372 4.77289 13.7578 4.49957 14.0324 4.33501C14.3031 4.16581 14.6716 4.12178 14.9615 4.17554C15.2546 4.22711 15.464 4.37734 15.5436 4.54528C15.6091 4.53046 15.6739 4.51564 15.739 4.50126C15.6645 4.29646 15.4416 4.09553 15.0714 4.01006C14.8878 3.96647 14.6737 3.95422 14.4528 3.97746C14.2329 4.00202 14.007 4.06759 13.8191 4.17844C13.6312 4.2876 13.4921 4.43864 13.4239 4.60194C13.3554 4.76485 13.3537 4.93827 13.4095 5.08975C13.5205 5.40076 13.8475 5.59999 14.1543 5.66261Z" fill="#292929"/>
<path d="M19.4265 17.575C19.2327 17.5162 18.9991 17.5026 18.7601 17.5454C18.5215 17.5881 18.2812 17.6909 18.0913 17.8369C17.9013 17.982 17.7727 18.1609 17.7181 18.3301C17.6623 18.4993 17.6749 18.6584 17.7376 18.7883C17.8637 19.0502 18.1658 19.1813 18.4424 19.2304C18.4695 19.1932 18.4966 19.1551 18.5236 19.1162C18.2994 19.0637 18.0836 18.9309 18.0185 18.7219C17.9504 18.518 18.0506 18.2358 18.329 18.0311C18.6027 17.8225 19 17.7459 19.3021 17.8123C19.6092 17.8749 19.8072 18.0662 19.8635 18.2515C19.9307 18.2328 19.9976 18.215 20.0645 18.196C20.0221 17.9651 19.8199 17.6918 19.4265 17.575Z" fill="#292929"/>
<path d="M14.9487 17.616C14.7401 17.5488 14.4994 17.5221 14.2659 17.5538C14.0323 17.5847 13.8102 17.6761 13.649 17.8149C13.487 17.9532 13.3952 18.1292 13.3783 18.3001C13.3613 18.4719 13.413 18.6369 13.5111 18.7718C13.7091 19.046 14.0603 19.1831 14.3539 19.2304C14.3674 19.1932 14.3818 19.1555 14.3957 19.117C14.1542 19.0642 13.894 18.9259 13.773 18.7109C13.6495 18.5003 13.6854 18.2151 13.9231 18.0213C14.1546 17.8242 14.543 17.7654 14.8637 17.8462C15.189 17.9227 15.4301 18.1216 15.5274 18.3031C15.5926 18.2878 15.6578 18.2722 15.7229 18.257C15.6324 18.0315 15.3734 17.7523 14.9487 17.616Z" fill="#292929"/>
<path d="M3.88382 18.7084C2.16362 19.3028 1.10635 22.8092 2.01678 24.284C1.98293 23.3372 3.68617 22.6201 4.28019 23.638C4.66437 25.2875 1.47401 26.8901 1.81198e-05 27.0991C0.700182 28.153 4.54887 28.6154 5.94291 26.7104C6.88168 25.428 6.59528 24.5886 7.84078 25.0638C9.20305 25.5849 8.01464 27.46 6.92439 27.8006C11.2219 28.5955 10.1224 24.1905 11.7356 24.614C13.3491 25.0371 11.8384 26.4027 11.6628 26.5783C14.5595 27.0407 13.8687 24.0289 16.1059 23.4488C17.4322 22.9518 18.2026 22.8541 18.9168 22.7301C22.7519 22.0625 26.1072 19.3667 27.4306 15.4161C29.3504 9.68055 26.2582 3.47576 20.5235 1.55503C14.7884 -0.364829 8.58284 2.72655 6.66211 8.46206C6.40748 9.22271 6.24199 9.99145 6.15909 10.7576C6.09773 11.3258 5.84857 12.0087 5.63196 12.5137C4.96477 14.074 3.0728 14.6317 2.61255 15.3627C1.58278 16.9996 2.41584 18.0281 2.41584 18.0281C2.41584 18.0281 2.79871 17.0576 3.88595 16.9539C4.97407 16.8499 5.60357 18.114 3.88382 18.7084ZM8.00195 8.9105C8.83921 6.41144 10.6059 4.49284 12.7924 3.40216C14.9796 2.31316 17.5752 2.05848 20.0751 2.89444C22.5746 3.73214 24.4928 5.49882 25.5831 7.68528C26.6724 9.87251 26.9271 12.4681 26.0907 14.9676C25.2534 17.4675 23.4867 19.3857 21.3003 20.4755C19.113 21.5649 16.5179 21.8204 14.018 20.9832C11.5186 20.1464 9.59992 18.3801 8.50923 16.1928C7.42024 14.0056 7.16556 11.4109 8.00195 8.9105Z" fill="#292929"/>
</g>
<defs>
<clipPath id="clip0_2_211">
<rect width="28" height="28" fill="white" transform="matrix(-1 0 0 -1 28 28.5)"/>
</clipPath>
</defs>
</svg>
